<svg xmlns="http://www.w3.org/2000/svg" width="66.77" height="66.769" viewBox="0 0 66.77 66.769"><g transform="translate(-54.213 -177.113)"><path d="M87.6,177.113a33.384,33.384,0,1,0,33.383,33.382A33.407,33.407,0,0,0,87.6,177.113Zm0,3.035a30.346,30.346,0,0,1,29.608,37q-10.086,0-20.181,0a1.519,1.519,0,0,0-1.462,1.939,6.078,6.078,0,0,1,.241,1.634c0,3.8-3.558,7.053-8.206,7.053s-8.207-3.249-8.21-7.047v-.005a6.094,6.094,0,0,1,.24-1.641,1.517,1.517,0,0,0-1.461-1.932c-6.726.011-13.458-.015-20.181,0a30.342,30.342,0,0,1,29.612-37Zm-.022,1.239a1.516,1.516,0,0,0-1.5,1.539v5.266a1.518,1.518,0,1,0,3.036,0v-5.266A1.516,1.516,0,0,0,87.578,181.387Zm-13.683,3.607a1.517,1.517,0,0,0-1.243,2.295l2.632,4.56a1.517,1.517,0,1,0,2.627-1.513l-2.633-4.564A1.516,1.516,0,0,0,73.895,184.994Zm27.361,0a1.514,1.514,0,0,0-1.338.778l-2.633,4.564a1.517,1.517,0,1,0,2.627,1.513l2.632-4.56A1.517,1.517,0,0,0,101.256,184.994ZM63.849,195.029c-.052,0-.1,0-.154,0a1.518,1.518,0,0,0-.644,2.839l4.559,2.638a1.519,1.519,0,1,0,1.519-2.632l-4.56-2.633a1.513,1.513,0,0,0-.72-.214Zm47.606,0a1.5,1.5,0,0,0-.828.212l-4.559,2.633a1.52,1.52,0,1,0,1.518,2.632l4.558-2.638a1.517,1.517,0,0,0-.689-2.839Zm-34.664,2.392a1.517,1.517,0,0,0-1.059,2.6l7.309,7.309a5.318,5.318,0,1,0,2.238-2.052l-7.4-7.4a1.517,1.517,0,0,0-1.086-.458ZM87.6,207.765a2.285,2.285,0,1,1-1.61.677,2.262,2.262,0,0,1,1.61-.677ZM60.027,208.8a1.518,1.518,0,1,0,0,3.035H65.3a1.518,1.518,0,0,0,0-3.035Zm49.878,0a1.518,1.518,0,1,0,0,3.035h5.264a1.518,1.518,0,0,0,0-3.035ZM98.764,220.183h17.6a30.353,30.353,0,0,1-57.529,0h17.6c-.012.179-.078.352-.079.532v.006c0,5.662,5.148,10.083,11.241,10.083s11.242-4.421,11.242-10.083v-.012c0-.178-.067-.35-.078-.528Z" fill="#cc7022"/></g></svg>