<svg xmlns="http://www.w3.org/2000/svg" width="45.848" height="56.635" viewBox="0 0 45.848 56.635"><g transform="translate(-538.669 -189.319)"><path d="M581.82,189.319H541.366a2.681,2.681,0,0,0-2.7,2.694v51.248a2.688,2.688,0,0,0,2.685,2.693h28.888l14.275-14.274V192.036A2.719,2.719,0,0,0,581.82,189.319Zm-40.454,53.938V192.016H581.82v37.757H571.007a2.685,2.685,0,0,0-2.672,2.672v10.812Zm38.547-10.787-8.881,8.88v-8.88Z" fill="#cc7022"/><path d="M570.362,210.087l6.6-12.815-2.4-1.236-5.671,10.98-4.408-5.365a1.349,1.349,0,0,0-2.309.392l-4.613,12.625-5.284-4.737a1.349,1.349,0,0,0-2.08.356l-5.171,9.4,2.363,1.3,4.347-7.887,5.516,4.89a1.349,1.349,0,0,0,2.165-.544l4.492-12.232,4.2,5.113A1.349,1.349,0,0,0,570.362,210.087Z" fill="#cc7022"/><rect width="16.182" height="2.697" transform="translate(546.76 227.076)" fill="#cc7022"/><rect width="16.182" height="2.697" transform="translate(546.76 235.167)" fill="#cc7022"/></g></svg>