<svg xmlns="http://www.w3.org/2000/svg" width="207.018" height="80" viewBox="0 0 207.018 80"><g transform="translate(-91 -62.019)"><g transform="translate(171.082 66.795)"><path d="M323.2,81.143a7.869,7.869,0,0,0,.427-2.163c0-.88-.729-.981-1.887-.981l.125-.453h6.59l-.125.453H327.8c-1.484,0-1.937,1.258-2.188,2.214l-2.49,8.678c-.856,3.018-2.918,5.685-6.339,5.685-1.409,0-2.968-.6-2.968-2.264a1.6,1.6,0,0,1,1.584-1.685,1.167,1.167,0,0,1,1.233,1.131c0,.73-.73.982-.73,1.409s.478.654.881.654c2.868,0,3.849-3.8,4.477-5.987Z" transform="translate(-313.818 -76.742)" fill="#1b365d"/><path d="M348.326,100.49c0-3.672,3.471-7.546,7.244-7.546a3.649,3.649,0,0,1,3.673,3.924c0,3.622-3.271,7.5-7.019,7.5A3.69,3.69,0,0,1,348.326,100.49Zm8.879-4.6a2.074,2.074,0,0,0-2.012-2.339c-2.742,0-4.829,4.98-4.829,7.772a2.147,2.147,0,0,0,2.138,2.44C354.866,103.759,357.205,99.383,357.205,95.886Z" transform="translate(-335.924 -86.606)" fill="#1b365d"/><path d="M386.86,86.978l.049.05c1.233-1.811,3.5-5.382,5.762-5.382a1.409,1.409,0,0,1,1.409,1.484c0,.981-.178,1.433-1.184,4.854-.4,1.308-.955,3.094-.955,3.321a.359.359,0,0,0,.325.377c.505,0,1.46-1.233,1.762-1.66l.4.226c-.653,1.107-2.187,2.817-3.37,2.817A1.016,1.016,0,0,1,390,92.009a24.7,24.7,0,0,1,1.132-4.452,19.953,19.953,0,0,0,.98-3.823c0-.377-.152-.629-.578-.629-1.51,0-4.731,4.7-5.535,7.219l-.779,2.44h-1.837l3.923-13.658a11.985,11.985,0,0,0,.529-2.063c0-.579-.6-.679-1.056-.679a3.881,3.881,0,0,0-.754.1v-.478l4-.679h.252Z" transform="translate(-358.384 -75.308)" fill="#1b365d"/><path d="M422.553,98.276l.051.05c1.233-1.811,3.495-5.382,5.759-5.382a1.407,1.407,0,0,1,1.409,1.484c0,.981-.176,1.433-1.181,4.854-.4,1.308-.957,3.094-.957,3.321a.361.361,0,0,0,.328.377c.5,0,1.46-1.233,1.761-1.66l.4.226c-.655,1.107-2.19,2.817-3.371,2.817a1.018,1.018,0,0,1-1.057-1.056,24.7,24.7,0,0,1,1.132-4.452,19.955,19.955,0,0,0,.98-3.823c0-.377-.15-.629-.578-.629-1.509,0-4.728,4.7-5.533,7.219l-.781,2.44h-1.834l2.112-7.319a12.236,12.236,0,0,0,.529-2.063c0-.579-.606-.679-1.058-.679a3.89,3.89,0,0,0-.755.1v-.478l4-.679h.25Z" transform="translate(-381.251 -86.606)" fill="#1b365d"/><path d="M461.559,96.717h-.454c.026-1.459-.6-3.169-2.314-3.169a1.524,1.524,0,0,0-1.635,1.484c0,1.66,3.5,3.4,3.5,6.112,0,1.912-1.937,3.22-3.7,3.22a10.778,10.778,0,0,1-2.691-.579.928.928,0,0,0-.856.579h-.451l.753-4h.454c0,1.811.6,3.4,2.716,3.4a1.847,1.847,0,0,0,1.986-1.736c0-2.138-3.371-3.849-3.371-6.263a2.92,2.92,0,0,1,3.069-2.816,15.919,15.919,0,0,1,2.391.578,1.026,1.026,0,0,0,.905-.578h.452Z" transform="translate(-402.95 -86.606)" fill="#1b365d"/><path d="M483.328,100.49c0-3.672,3.472-7.546,7.243-7.546a3.648,3.648,0,0,1,3.673,3.924c0,3.622-3.271,7.5-7.018,7.5A3.689,3.689,0,0,1,483.328,100.49Zm8.878-4.6a2.074,2.074,0,0,0-2.012-2.339c-2.742,0-4.829,4.98-4.829,7.772a2.147,2.147,0,0,0,2.138,2.44C489.867,103.759,492.206,99.383,492.206,95.886Z" transform="translate(-422.405 -86.606)" fill="#1b365d"/><path d="M521.861,98.276l.051.05c1.233-1.811,3.5-5.382,5.76-5.382a1.407,1.407,0,0,1,1.408,1.484c0,.981-.175,1.433-1.181,4.854-.4,1.308-.957,3.094-.957,3.321a.361.361,0,0,0,.327.377c.5,0,1.46-1.233,1.761-1.66l.4.226c-.655,1.107-2.19,2.817-3.371,2.817a1.018,1.018,0,0,1-1.057-1.056,24.718,24.718,0,0,1,1.132-4.452,20.086,20.086,0,0,0,.982-3.823c0-.377-.152-.629-.58-.629-1.509,0-4.728,4.7-5.533,7.219l-.781,2.44h-1.834l2.113-7.319a12.263,12.263,0,0,0,.529-2.063c0-.579-.606-.679-1.057-.679a3.894,3.894,0,0,0-.756.1v-.478l4-.679h.25Z" transform="translate(-444.867 -86.606)" fill="#1b365d"/><path d="M371.45,146.865H371v-1.031a3.307,3.307,0,0,0-3.648-3.547c-5.08,0-8.073,5.735-8.073,10.237,0,3.019,1.936,5.307,5.055,5.307a6.494,6.494,0,0,0,5.558-3.119h.579c-1.609,2.666-3.772,4.176-6.942,4.176-4,0-6.842-2.591-6.842-6.666a11.056,11.056,0,0,1,10.74-10.74,6.294,6.294,0,0,1,2.617.579,2.693,2.693,0,0,0,.98.251c.554,0,.9-.452,1.233-.83h.453Z" transform="translate(-341.278 -117.596)" fill="#1b365d"/><path d="M401.334,165.475c0-3.672,3.471-7.545,7.245-7.545a3.649,3.649,0,0,1,3.673,3.924c0,3.621-3.27,7.5-7.018,7.5A3.691,3.691,0,0,1,401.334,165.475Zm8.88-4.6a2.075,2.075,0,0,0-2.012-2.339c-2.742,0-4.831,4.98-4.831,7.772a2.147,2.147,0,0,0,2.138,2.44C407.875,168.746,410.214,164.368,410.214,160.872Z" transform="translate(-369.88 -128.12)" fill="#1b365d"/><path d="M439.87,163.262l.049.05c1.233-1.811,3.5-5.382,5.759-5.382a1.409,1.409,0,0,1,1.411,1.484c0,.981-.178,1.434-1.184,4.855-.4,1.308-.955,3.094-.955,3.321a.359.359,0,0,0,.325.377c.5,0,1.46-1.232,1.761-1.66l.4.227c-.653,1.107-2.187,2.817-3.371,2.817a1.016,1.016,0,0,1-1.055-1.056,24.72,24.72,0,0,1,1.132-4.452,19.957,19.957,0,0,0,.98-3.824c0-.377-.152-.629-.578-.629-1.511,0-4.73,4.7-5.535,7.219l-.779,2.44H436.4l2.113-7.32a12.015,12.015,0,0,0,.529-2.062c0-.578-.6-.679-1.057-.679a3.874,3.874,0,0,0-.754.1v-.478l4-.679h.253Z" transform="translate(-392.342 -128.12)" fill="#1b365d"/><path d="M478.873,161.7h-.452c.024-1.459-.6-3.169-2.316-3.169a1.523,1.523,0,0,0-1.633,1.484c0,1.66,3.5,3.4,3.5,6.113,0,1.911-1.937,3.219-3.7,3.219a10.833,10.833,0,0,1-2.693-.579.931.931,0,0,0-.856.579h-.451l.753-4h.454c0,1.811.6,3.4,2.716,3.4a1.85,1.85,0,0,0,1.989-1.736c0-2.138-3.371-3.848-3.371-6.263a2.92,2.92,0,0,1,3.069-2.817,15.8,15.8,0,0,1,2.389.578,1.026,1.026,0,0,0,.905-.578h.454Z" transform="translate(-414.041 -128.12)" fill="#1b365d"/><path d="M509.77,165.249a14.951,14.951,0,0,0-.58,2.339c0,.2.051.377.3.377.5,0,.906-.427,1.736-1.634l.379.276c-.629,1.031-1.963,2.742-3.271,2.742a.926.926,0,0,1-1.031-.981,17.6,17.6,0,0,1,1.233-4.9l-.051-.05c-1.055,1.76-3.57,5.936-6.01,5.936a1.356,1.356,0,0,1-1.359-1.484,13.331,13.331,0,0,1,.629-3.043c1.107-3.848,1.357-4.477,1.357-5.131,0-.176-.075-.377-.325-.377-.655,0-1.284,1.056-1.687,1.509l-.377-.252c.629-1.031,2.087-2.641,3.371-2.641a.977.977,0,0,1,1.055,1.056c0,.553-.1.956-1.256,5.03a16.926,16.926,0,0,0-.856,3.321.516.516,0,0,0,.555.553c1.256,0,4.653-3.446,6.061-8.552l.3-1.107,1.986-.3Z" transform="translate(-433.542 -128.12)" fill="#1b365d"/><path d="M539.182,155.537a2.809,2.809,0,0,0-.178.8c0,.226.126.326.353.326.578,0,1.535-1.232,1.885-1.71l.428.277c-.678,1.03-2.213,2.817-3.521,2.817a1.089,1.089,0,0,1-1.181-1.157,9.934,9.934,0,0,1,.4-1.71l3.144-11.093a12.123,12.123,0,0,0,.526-2.063c0-.579-.6-.679-1.055-.679a3.9,3.9,0,0,0-.756.1v-.478l4-.679h.25Z" transform="translate(-456.767 -116.836)" fill="#1b365d"/><path d="M561.928,152.806h1.963l-.227.805h-1.937l-2.012,6.917a9.158,9.158,0,0,0-.428,1.811c0,.177.077.428.327.428.756,0,1.71-1.434,2.063-1.937l.428.277c-.68,1.03-2.213,2.817-3.523,2.817a1.089,1.089,0,0,1-1.181-1.157,10.071,10.071,0,0,1,.327-1.736l2.113-7.42h-1.862l.126-.5c2.063-.5,2.969-1.585,4.251-3.647h.529Z" transform="translate(-469.856 -122.701)" fill="#1b365d"/><path d="M579.772,158.136a2.892,2.892,0,0,0-.175.8c0,.226.124.326.351.326.578,0,1.535-1.232,1.885-1.71l.428.277c-.679,1.03-2.213,2.817-3.521,2.817a1.089,1.089,0,0,1-1.181-1.157,9.929,9.929,0,0,1,.4-1.71l1.333-4.755a12.127,12.127,0,0,0,.527-2.062c0-.578-.6-.679-1.055-.679a3.892,3.892,0,0,0-.755.1v-.478l4-.679h.25Zm2.288-13.784a1.233,1.233,0,1,1-1.233,1.232A1.234,1.234,0,0,1,582.06,144.352Z" transform="translate(-482.769 -119.432)" fill="#1b365d"/><path d="M599.644,163.262l.051.05c1.233-1.811,3.5-5.382,5.76-5.382a1.407,1.407,0,0,1,1.408,1.484c0,.981-.175,1.434-1.181,4.855-.4,1.308-.957,3.094-.957,3.321a.361.361,0,0,0,.327.377c.5,0,1.46-1.232,1.761-1.66l.4.227c-.655,1.107-2.19,2.817-3.371,2.817a1.018,1.018,0,0,1-1.057-1.056,24.738,24.738,0,0,1,1.132-4.452,20.1,20.1,0,0,0,.983-3.824c0-.377-.152-.629-.58-.629-1.509,0-4.728,4.7-5.533,7.219l-.779,2.44h-1.837l2.113-7.32a12.248,12.248,0,0,0,.529-2.062c0-.578-.6-.679-1.057-.679a3.866,3.866,0,0,0-.753.1v-.478l4-.679h.253Z" transform="translate(-494.694 -128.12)" fill="#1b365d"/><path d="M642.054,159.967h-2.035a3.84,3.84,0,0,1,.225,1.183c0,2.742-2.69,4.3-5.182,4.351-.552.175-2.187.73-2.187,1.384,0,.6.831.7,3.42,1.308,1.409.326,3.547.8,3.547,2.641,0,2.817-3.8,3.647-6.01,3.647-1.612,0-5.182-.4-5.182-2.617,0-1.634,1.911-2.464,3.118-3.144a1.138,1.138,0,0,1-.578-.98c0-1.132,1.71-1.887,2.589-2.214v-.05a3.3,3.3,0,0,1-2.917-3.018c0-2.113,1.736-4.527,5.608-4.527a4.135,4.135,0,0,1,2.641.78h3.322Zm-11.769,11.646c0,1.761,2.564,2.063,3.848,2.063,1.207,0,4.225-.428,4.225-2.088,0-1.031-.88-1.484-6.087-2.541A3.092,3.092,0,0,0,630.284,171.613Zm7.846-10.992a1.931,1.931,0,0,0-2.038-2.138c-2.037,0-3.118,2.616-3.118,4.352a2.042,2.042,0,0,0,2.012,2.112C637.1,164.947,638.13,162.281,638.13,160.621Z" transform="translate(-515.497 -128.109)" fill="#1b365d"/><path d="M426.4,211.7h-.477c.049-.453.126-.931.126-1.333,0-2.062-2.239-3.019-4-3.019-5.13,0-8.174,5.308-8.174,9.936,0,3.042,1.558,5.709,4.878,5.709a7.156,7.156,0,0,0,2.819-.654l1.031-3.6a7.862,7.862,0,0,0,.426-2.164c0-.879-1.233-.98-2.389-.98l.127-.452h7.093l-.126.452h-.529c-1.483,0-1.937,1.258-2.187,2.213l-1.385,4.88a11.419,11.419,0,0,1-4.9,1.183c-5.86,0-7.446-4.051-7.446-6.867A10.879,10.879,0,0,1,422,206.469a8.416,8.416,0,0,1,3.245.578,2.088,2.088,0,0,0,.856.252c.578,0,.8-.4,1.081-.829h.454Z" transform="translate(-376.255 -159.103)" fill="#1b365d"/><path d="M460.937,226.713a12,12,0,0,0,.529-2.062c0-.579-.6-.68-1.057-.68a3.865,3.865,0,0,0-.753.1v-.477l4-.679h.252l-1.787,5.811.051.05c.73-1.41,3.673-5.861,5.458-5.861.578,0,.856.4.856.955,0,.706-.353,2.088-1.259,2.088-1.081,0-.377-1.157-1.233-1.157-.5,0-3.949,3.949-4.929,7.848l-.353,1.384h-1.837Z" transform="translate(-406.739 -169.639)" fill="#1b365d"/><path d="M484.285,230.46c0-3.672,3.471-7.545,7.245-7.545a3.648,3.648,0,0,1,3.671,3.924c0,3.621-3.268,7.5-7.016,7.5A3.69,3.69,0,0,1,484.285,230.46Zm8.88-4.6a2.076,2.076,0,0,0-2.014-2.339c-2.742,0-4.829,4.981-4.829,7.773a2.147,2.147,0,0,0,2.138,2.44C490.826,233.731,493.165,229.354,493.165,225.858Z" transform="translate(-423.018 -169.639)" fill="#1b365d"/><path d="M529.1,230.235a15.186,15.186,0,0,0-.578,2.339c0,.2.049.377.3.377.5,0,.905-.427,1.736-1.634l.376.276c-.629,1.031-1.962,2.742-3.27,2.742a.926.926,0,0,1-1.031-.981,17.69,17.69,0,0,1,1.233-4.9l-.049-.05c-1.057,1.76-3.572,5.936-6.012,5.936a1.356,1.356,0,0,1-1.359-1.484,13.452,13.452,0,0,1,.629-3.043c1.107-3.848,1.359-4.476,1.359-5.13,0-.177-.075-.378-.327-.378-.655,0-1.282,1.056-1.685,1.509l-.379-.252c.629-1.03,2.089-2.641,3.371-2.641a.978.978,0,0,1,1.057,1.056c0,.555-.1.957-1.259,5.031a16.879,16.879,0,0,0-.854,3.321.514.514,0,0,0,.552.553c1.259,0,4.653-3.446,6.062-8.553l.3-1.107,1.989-.3Z" transform="translate(-445.926 -169.639)" fill="#1b365d"/><path d="M553.44,225.707l.049.05c1.106-1.434,2.566-2.842,4.529-2.842,1.584,0,2.538,1.51,2.538,3.119,0,3.219-3.067,8.3-7.318,8.3a3.7,3.7,0,0,1-2.089-.629l-.805,2.868a6.718,6.718,0,0,0-.351,1.534c0,.829,1.107.829,1.86.829l-.124.453h-5.785l.124-.453c1.408,0,1.811-.3,2.316-2.012l2.943-10.213a12.077,12.077,0,0,0,.527-2.062c0-.579-.6-.68-1.055-.68a3.89,3.89,0,0,0-.755.1v-.477l4-.679h.25Zm-2.012,7.043a2.688,2.688,0,0,0,2.113.906c2.339,0,4.981-4.2,4.981-7.571,0-1.006-.379-2.088-1.561-2.088-1.282,0-3.4,1.384-4.653,5.709Z" transform="translate(-462.517 -169.639)" fill="#1b365d"/></g><path d="M159.212,73.857A39.566,39.566,0,0,0,131.058,62.02h-.175a40.023,40.023,0,0,0-28.324,68.16,39.573,39.573,0,0,0,28.154,11.839h.175a40.025,40.025,0,0,0,28.324-68.162Zm9.534,26.346-1.353,1.489-1.485-1.356,1.352-1.487Zm-1.556-2.075-1.609-1.2,1.2-1.611,1.61,1.2Zm-.544-3.523-1.719-1.041,1.039-1.721,1.72,1.041Zm-.883-3.445-1.812-.869.867-1.815,1.813.866Zm-1.212-3.339-1.887-.687.685-1.891,1.888.685Zm-.671,14.49a32.993,32.993,0,1,1-32.992-33.086A33.038,33.038,0,0,1,163.879,102.311Zm-.358-19.643-.5,1.951-1.945-.5.5-1.949Zm-4-3.379,1.985.306-.309,1.99-1.985-.308Zm-2.323-2.666,2,.113-.117,2.011-2.005-.115Zm-.56-2.51.076,2.013-2.005.078-.075-2.011Zm-2.8-2.36.268,1.995-1.989.271-.268-1.995Zm-3.011-2.08.458,1.963-1.955.46-.458-1.958Zm-3.2-1.777.645,1.91-1.9.648-.645-1.907Zm-3.349-1.457.827,1.839-1.83.83-.825-1.834Zm-3.469-1.122,1,1.747-1.741,1-1-1.744Zm-3.556-.779,1.164,1.641-1.636,1.17-1.162-1.641Zm-3.6-.432,1.315,1.524-1.517,1.319-1.313-1.521Zm-3.622-.085,1.452,1.391-1.384,1.457-1.451-1.391Zm-3.686.266,1.579,1.243-1.237,1.586L125.1,65.875Zm-3.639.625L124.392,66l-1.078,1.7-1.692-1.082Zm-3.557.977,1.792.912-.908,1.795-1.79-.91ZM115.7,67.212l1.873.731-.728,1.878-1.869-.731Zm-3.283,1.646,1.933.545-.541,1.94-1.932-.545Zm-3.109,1.956,1.978.356-.352,1.981-1.975-.354Zm-2.9,2.248,2,.161-.159,2.009-2-.163Zm-.662,2.482.033,2.013-2.007.03-.036-2.013Zm-2.427,2.563.225,2-1.994.225-.228-2Zm-2.17,2.783.417,1.97-1.964.416-.419-1.97ZM99.26,83.865l.6,1.919-1.914.6-.607-1.921Zm-1.594,3.142.786,1.853-1.848.786-.787-1.852Zm-1.283,3.275.96,1.77-1.763.961-.964-1.767Zm-.96,3.383,1.126,1.666-1.663,1.126-1.127-1.664Zm-.63,3.45,1.281,1.551-1.548,1.28L93.243,98.4Zm-.3,3.489,1.421,1.423-1.42,1.423-1.422-1.423Zm.035,3.571,1.55,1.278L94.8,107.006l-1.551-1.278Zm.377,3.546,1.667,1.122-1.12,1.671-1.668-1.121Zm.718,3.489,1.768.954-.952,1.77-1.769-.952Zm1.053,3.395,1.854.777-.776,1.857-1.854-.775Zm1.378,3.273,1.918.59-.591,1.924-1.92-.588Zm1.281,5.093.4-1.974,1.969.4-.4,1.972Zm4.164,3.174-2-.209.211-2,2,.209Zm2.45,2.549-2.008-.016.019-2.013,2.008.016Zm.68,2.475-.174-2.006,2-.177.174,2Zm2.913,2.22-.366-1.981,1.974-.368.364,1.979Zm3.109,1.926-.553-1.935,1.929-.558.553,1.935Zm3.278,1.616-.739-1.873,1.867-.742.738,1.871Zm3.415,1.287-.917-1.793,1.786-.919.916,1.791Zm3.518.949-1.085-1.7,1.688-1.089,1.084,1.694Zm3.584.6-1.242-1.582,1.577-1.248,1.24,1.581Zm3.618.255-1.388-1.457,1.451-1.393,1.387,1.457Zm3.611-.089-1.518-1.319,1.314-1.524,1.515,1.319Zm3.667-.444L135.7,138.32l1.159-1.643,1.637,1.165Zm3.6-.8-1.744-1,.994-1.749,1.743,1Zm3.5-1.149-1.834-.823.818-1.839,1.832.821Zm3.367-1.487-1.9-.639.635-1.91,1.9.639Zm3.2-1.8-1.958-.451.447-1.963,1.956.451Zm3.009-2.105-1.993-.257.257-2,1.989.257Zm2.79-2.383-2.009-.065.063-2.013,2.005.067Zm.541-2.51-.13-2.009,2-.127.133,2.009Zm2.3-2.675-.321-1.988,1.98-.32.324,1.988Zm2.033-2.882-.51-1.947,1.941-.51.512,1.947Zm1.746-3.061-.7-1.889,1.884-.7.7,1.889Zm1.441-3.215L164,113.6l1.808-.875.876,1.813ZM166,112.081l-1.045-1.719,1.715-1.046,1.046,1.719Zm.8-3.42-1.2-1.611,1.607-1.2,1.205,1.609Zm.464-3.473-1.352-1.489,1.485-1.354,1.353,1.487Z" fill="#1b365d"/><g transform="translate(105.202 82.139)"><g transform="translate(0 0)"><path d="M147.4,121.039a5.246,5.246,0,0,1,4.351,5.668,6.664,6.664,0,0,1,1.642-.721c.3-.1.636-.209,1.021-.352a22.925,22.925,0,0,1,6.731-.645c2.572,0,5.083.133,6.028.189a5.269,5.269,0,0,0,.346-3.568,6.486,6.486,0,0,0-3.591-3.759l-10.243-.159a14.071,14.071,0,0,0-8.082,3.377A5.252,5.252,0,0,1,147.4,121.039Z" transform="translate(-140.178 -117.693)" fill="#1b365d"/><path d="M140.33,138.2a4.056,4.056,0,1,0-3.34-4.664A4.054,4.054,0,0,0,140.33,138.2Z" transform="translate(-134.628 -125.665)" fill="#1b365d"/><path d="M144.248,155.853c-.176-.006-3.72-.172-5.15-2.39a4.578,4.578,0,0,1-.07-4.36c.183-.45.351-.855.511-1.231a5.248,5.248,0,0,1-7.789-3.465c-1.452,3.306-1.323,5.3-1.093,8.355.309,4.114,3.265,9.284,10.579,10.335l11.155-.091.179,0a5.526,5.526,0,0,0,3.943-1.644c1.144-1.235,1.673-3.1,1.573-5.564Z" transform="translate(-130.515 -134.806)" fill="#1b365d"/></g><g transform="translate(23.913 10.293)"><path d="M254.657,166.439a3.913,3.913,0,0,0-3.222-4.5,3.983,3.983,0,0,0-.645-.053,3.912,3.912,0,1,0,3.867,4.551Z" transform="translate(-228.974 -156.297)" fill="#1b365d"/><path d="M213.789,155.667a4.927,4.927,0,0,1,6.469-4.727c-3.191-2.98-6.957-4.61-7.872-4.61l-11.237.247c-4.451,1.432-4.215,6.186-4,7.769,1.122-.071,3.826-.22,6.709-.22C210.278,154.126,212.822,154.822,213.789,155.667Z" transform="translate(-197.051 -146.331)" fill="#1b365d"/><path d="M225.2,175.141a5.058,5.058,0,0,1-7.423,3.644,5.27,5.27,0,0,1,.1,3.2c-.919,2.97-4.5,4.013-4.653,4.056-.182.027-2.1.2-14.018.364-.765,4.758,1.694,5.652,3.5,6.311.293.106.563.205.792.308a13.353,13.353,0,0,0,4.345.492,46.047,46.047,0,0,0,9.572-1.085c5.433-1.212,6.6-4.915,7.041-6.309.041-.129.076-.239.106-.324A16.648,16.648,0,0,0,225.2,175.141Z" transform="translate(-198.341 -164.787)" fill="#1b365d"/></g></g></g></svg>