<svg xmlns="http://www.w3.org/2000/svg" width="45.137" height="29.369" viewBox="0 0 45.137 29.369"><g transform="translate(-23.084 -32.624)"><path d="M23.1,51.971c0,.116-.018.23-.018.347,0,.04.005.077.006.116,0,.077-.006.154-.006.231l.017-.012a9.669,9.669,0,1,0,11.031-9.9,9.393,9.393,0,0,1,9-6.677V32.624A20.029,20.029,0,0,0,23.1,51.971Z" fill="#bed8cb"/><path d="M52.938,51.971c0,.116-.018.23-.018.347,0,.04.006.077.006.116,0,.077-.006.154-.006.231l.018-.012a9.668,9.668,0,1,0,11.03-9.9,9.393,9.393,0,0,1,8.995-6.677V32.624A20.029,20.029,0,0,0,52.938,51.971Z" transform="translate(-4.741)" fill="#bed8cb"/></g></svg>