<svg xmlns="http://www.w3.org/2000/svg" width="20" height="20" viewBox="0 0 20 20"><g transform="translate(-157.088 -287.369)"><path d="M167.088,287.369a10,10,0,1,0,10,10A10.01,10.01,0,0,0,167.088,287.369Zm0,1.333a8.667,8.667,0,1,1-8.667,8.667A8.657,8.657,0,0,1,167.088,288.7Zm-2.257,3.1a.667.667,0,0,0-.417,1.16l4.8,4.4-4.8,4.4a.667.667,0,1,0,.854,1.024.554.554,0,0,0,.048-.045l5.333-4.889a.667.667,0,0,0,.037-.943q-.018-.019-.037-.037l-5.333-4.889A.667.667,0,0,0,164.831,291.806Z" fill="#cc7022"/></g></svg>